nColumns=19
nRows=58
DataType=double
version=3
OpenSimVersion=4.1
endheader
time	ground_force_calcn_r_vx	ground_force_calcn_r_vy	ground_force_calcn_r_vz	ground_force_calcn_r_px	ground_force_calcn_r_py	ground_force_calcn_r_pz	ground_force_calcn_r_mx	ground_force_calcn_r_my	ground_force_calcn_r_mz	ground_force_calcn_l_vx	ground_force_calcn_l_vy	ground_force_calcn_l_vz	ground_force_calcn_l_px	ground_force_calcn_l_py	ground_force_calcn_l_pz	ground_force_calcn_l_mx	ground_force_calcn_l_my	ground_force_calcn_l_mz
0	7.10868	308.466	-5.72414	0.0998035	0	-0.0961533	0.0145345	0.630694	-0.0117036	0	0	0	0	0	0	0	0	0
0.01	-7.00556	345.941	-5.68692	0.103004	0	-0.0961903	-0.0149294	0.737227	-0.0121193	0	0	0	0	0	0	0	0	0
0.02	-21.5707	386.894	-6.1283	0.106501	0	-0.0960443	-0.0474437	0.850956	-0.0134789	0	0	0	0	0	0	0	0	0
0.03	-35.9519	430.198	-7.18781	0.109736	0	-0.0957173	-0.0808105	0.966974	-0.0161563	0	0	0	0	0	0	0	0	0
0.04	-49.5723	474.546	-8.96627	0.112714	0	-0.0952238	-0.112691	1.07876	-0.0203826	0	0	0	0	0	0	0	0	0
0.05	-61.9363	518.608	-11.497	0.115452	0	-0.0945884	-0.14089	1.17971	-0.0261528	0	0	0	0	0	0	0	0	0
0.06	-72.6348	561.174	-14.7302	0.117975	0	-0.0938351	-0.16376	1.2652	-0.0332101	0	0	0	0	0	0	0	0	0
0.07	-81.3745	601.208	-18.5348	0.120307	0	-0.0929921	-0.180537	1.33384	-0.0411214	0	0	0	0	0	0	0	0	0
0.08	-87.9807	637.862	-22.7151	0.122471	0	-0.092087	-0.191333	1.38717	-0.0493988	0	0	0	0	0	0	0	0	0
0.09	-92.3783	670.455	-27.0377	0.124486	0	-0.0911454	-0.196845	1.42865	-0.0576136	0	0	0	0	0	0	0	0	0
0.1	-94.5853	698.451	-31.2663	0.126372	0	-0.0901867	-0.198074	1.46264	-0.0654757	0	0	0	0	0	0	0	0	0
0.11	-94.7176	721.477	-35.1995	0.128156	0	-0.0892268	-0.196071	1.4935	-0.0728649	0	0	0	0	0	0	0	0	0
0.12	-92.9821	739.342	-38.6986	0.129866	0	-0.088269	-0.191737	1.52459	-0.0797999	0	0	0	0	0	0	0	0	0
0.13	-89.655	752.051	-41.6962	0.131548	0	-0.087313	-0.185714	1.55782	-0.0863708	0	0	0	0	0	0	0	0	0
0.14	-85.0557	759.799	-44.1818	0.133245	0	-0.0863537	-0.178456	1.59414	-0.0926982	0	0	0	0	0	0	0	0	0
0.15	-79.5193	762.962	-46.1779	0.135002	0	-0.0853849	-0.170353	1.63448	-0.0989261	0	0	0	0	0	0	0	0	0
0.16	-73.367	762.085	-47.7187	0.136862	0	-0.0844033	-0.161737	1.68001	-0.105196	0	0	0	0	0	0	0	0	0
0.17	-66.8823	757.864	-48.8363	0.138858	0	-0.0834097	-0.152817	1.73162	-0.111585	0	0	0	0	0	0	0	0	0
0.18	-60.2914	751.095	-49.5527	0.141009	0	-0.0824121	-0.143631	1.78932	-0.118048	0	0	0	0	0	0	0	0	0
0.19	-53.7584	742.624	-49.8793	0.14332	0	-0.0814223	-0.134065	1.85198	-0.124391	0	0	0	0	0	0	0	0	0
0.2	-47.3882	733.29	-49.8245	0.145779	0	-0.080458	-0.123893	1.91713	-0.130262	0	0	0	0	0	0	0	0	0
0.21	-41.2363	723.858	-49.4059	0.148367	0	-0.0795381	-0.112835	1.98069	-0.135189	0	0	0	0	0	0	0	0	0
0.22	-35.3256	714.963	-48.661	0.151058	0	-0.0786771	-0.100648	2.03704	-0.138643	0	0	0	0	0	0	0	0	0
0.23	-29.6611	707.071	-47.6493	0.153827	0	-0.0778878	-0.0872364	2.07957	-0.140142	0	0	0	0	0	0	0	0	0
0.24	-24.2396	700.476	-46.4499	0.15665	0	-0.0771787	-0.0727132	2.10127	-0.139339	0	0	0	0	0	0	0	0	0
0.25	-19.0567	695.304	-45.1538	0.159517	0	-0.0765507	-0.0574311	2.09543	-0.136079	0	0	0	0	0	0	0	0	0
0.26	-14.1102	691.549	-43.8526	0.162423	0	-0.0760009	-0.041966	2.05678	-0.130425	0	0	0	0	0	0	0	0	0
0.27	-9.40105	689.107	-42.6275	0.165377	0	-0.0755258	-0.0270415	1.98217	-0.122615	0	0	0	0	0	0	0	0	0
0.28	-4.93436	687.818	-41.541	0.168396	0	-0.0751199	-0.0134182	1.87041	-0.112964	0	0	0	0	0	0	0	0	0
0.29	-0.717108	687.5	-40.6321	0.171503	0	-0.0747797	-0.00179605	1.7219	-0.101766	0	0	0	0	0	0	0	0	0
0.3	3.24379	687.97	-39.9153	0.174727	0	-0.0745041	0.00725156	1.53797	-0.0892316	0	0	0	0	0	0	0	0	0
0.31	6.94343	689.063	-39.3829	0.178096	0	-0.0742945	0.0133062	1.3205	-0.0754721	0	0	0	0	0	0	0	0	0
0.32	10.3811	690.645	-39.0084	0.181637	0	-0.0741575	0.0161091	1.07172	-0.0605322	0	0	0	0	0	0	0	0	0
0.33	13.5637	692.618	-38.7543	0.185375	0	-0.0741036	0.0155537	0.794235	-0.0444401	0	0	0	0	0	0	0	0	0
0.34	16.5091	694.934	-38.5798	0.189323	0	-0.0741429	0.0116651	0.491032	-0.02726	0	0	0	0	0	0	0	0	0
0.35	19.2488	697.587	-38.4481	0.193491	0	-0.0742845	0.00457573	0.165827	-0.00913969	0	0	0	0	0	0	0	0	0
0.36	21.8294	700.608	-38.3325	0.197878	0	-0.0745383	-0.00550773	-0.176769	0.00967161	0	0	0	0	0	0	0	0	0
0.37	24.309	704.058	-38.2206	0.202474	0	-0.0749051	-0.0183389	-0.531146	0.0288339	0	0	0	0	0	0	0	0	0
0.38	26.751	708.014	-38.1143	0.207264	0	-0.0753823	-0.033647	-0.89053	0.0479397	0	0	0	0	0	0	0	0	0
0.39	29.2159	712.569	-38.0286	0.212235	0	-0.0759633	-0.0511332	-1.24713	0.0665571	0	0	0	0	0	0	0	0	0
0.4	31.7552	717.825	-37.9891	0.21737	0	-0.0766313	-0.070445	-1.59241	0.0842741	0	0	0	0	0	0	0	0	0
0.41	34.4109	723.882	-38.0301	0.222653	0	-0.0773704	-0.0911538	-1.91755	0.100741	0	0	0	0	0	0	0	0	0
0.42	37.2124	730.844	-38.1877	0.228067	0	-0.0781605	-0.112738	-2.21415	0.115693	0	0	0	0	0	0	0	0	0
0.43	40.1772	738.82	-38.4874	0.23359	0	-0.0789863	-0.134574	-2.47468	0.128914	0	0	0	0	0	0	0	0	0
0.44	43.3195	747.922	-38.9357	0.239198	0	-0.0798299	-0.155985	-2.69311	0.140199	0	0	0	0	0	0	0	0	0
0.45	46.6542	758.232	-39.5186	0.244855	0	-0.0806816	-0.176323	-2.86564	0.149355	0	0	0	0	0	0	0	0	0
0.46	50.198	769.775	-40.204	0.250522	0	-0.0815288	-0.195048	-2.99101	0.156215	0	0	0	0	0	0	0	0	0
0.47	53.9697	782.483	-40.9461	0.256152	0	-0.0823654	-0.211772	-3.07038	0.160668	0	0	0	0	0	0	0	0	0
0.48	57.9874	796.168	-41.6903	0.261701	0	-0.0831868	-0.226275	-3.10676	0.162682	0	0	0	0	0	0	0	0	0
0.49	62.264	810.504	-42.3801	0.267122	0	-0.0839883	-0.23851	-3.10474	0.162342	0	0	0	0	0	0	0	0	0
0.5	66.8039	825.014	-42.962	0.272375	0	-0.0847706	-0.248593	-3.07007	0.159871	0	0	0	0	0	0	0	0	0
0.51	71.598	839.071	-43.387	0.277427	0	-0.0855325	-0.256786	-3.00933	0.155608	0	0	0	0	0	0	0	0	0
0.52	76.6154	851.917	-43.6103	0.282253	0	-0.0862779	-0.263477	-2.92971	0.149974	0	0	0	0	0	0	0	0	0
0.53	81.7939	862.687	-43.5913	0.286839	0	-0.0870095	-0.269143	-2.83867	0.143437	0	0	0	0	0	0	0	0	0
0.54	87.0341	870.449	-43.2933	0.291182	0	-0.0877325	-0.274347	-2.7438	0.136468	0	0	0	0	0	0	0	0	0
0.55	92.2007	874.248	-42.6811	0.295293	0	-0.0884528	-0.279756	-2.65265	0.129503	-2.54205	36.0381	-6.57181	0.801212	0	-0.226558	-0.0306433	0.434424	-0.0792203
0.56	97.1238	873.161	-41.7213	0.299185	0	-0.0891747	-0.286129	-2.57235	0.122912	-5.53744	60.8474	-7.34445	0.822612	0	-0.238501	-0.0491805	0.540413	-0.0652293
0.57	101.604	866.345	-40.3875	0.302879	0	-0.0899066	-0.294225	-2.50877	0.116955	-9.5223	91.4939	-8.03645	0.834321	0	-0.244354	-0.0627447	0.602875	-0.052954
